{"title":"Ghost Source Zero 2018 1080p WEB-DL DD 5.1 [MW]","magnet":"magnet:?xt=urn:btih:1cebf8e0de15161240e19a0f280ff3e5cd2d6dd2&dn=Ghost+Source+Zero+2018+1080p+WEB-DL+DD+5.1+%5BMW%5D&tr=udp%3A%2F%2Ftracker.leechers-paradise.org%3A6969&tr=udp%3A%2F%2Fzer0day.ch%3A1337&tr=udp%3A%2F%2Fopen.demonii.com%3A1337&tr=udp%3A%2F%2Ftracker.coppersurfer.tk%3A6969&tr=udp%3A%2F%2Fexodus.desync.com%3A6969","uploader":"MFreaky","categoryP":"video","categoryS":"hd___movies","size":"2031765888","seeders":"4","leechers":"4","description":" <a href=\"https://pichub.site/image/E1lY0\" rel=\"nofollow\" target=\"_NEW\">https://pichub.site/image/E1lY0</a> <a href=\"\nhttps://pichub.site/image/E16zV\" rel=\"nofollow\" target=\"_NEW\">\nhttps://pichub.site/image/E16zV</a> <a href=\"\nhttps://pichub.site/image/E1P2T\" rel=\"nofollow\" target=\"_NEW\">\nhttps://pichub.site/image/E1P2T</a> <a href=\"\nhttps://pichub.site/image/E1XjN\" rel=\"nofollow\" target=\"_NEW\">\nhttps://pichub.site/image/E1XjN</a> <a href=\"\nhttps://pichub.site/image/E1swD\" rel=\"nofollow\" target=\"_NEW\">\nhttps://pichub.site/image/E1swD</a>\r\n\r\nIMDB <a href=\"\nhttps://www.imdb.com/title/tt3984432/\" rel=\"nofollow\" target=\"_NEW\">\nhttps://www.imdb.com/title/tt3984432/</a>\r\n\r\n\r\nVideo\r\nFormat                                   : AVC\r\nFormat/Info                              : Advanced Video Codec\r\nFormat profile                           : High@L4.1\r\nFormat settings                          : CABAC / 4 Ref Frames\r\nFormat settings, CABAC                   : Yes\r\nFormat settings, RefFrames               : 4 frames\r\nCodec ID                                 : V_MPEG4/ISO/AVC\r\nDuration                                 : 1 h 35 min\r\nBit rate                                 : 2 500 kb/s\r\nWidth                                    : 1 920 pixels\r\nHeight                                   : 1 080 pixels\r\nDisplay aspect ratio                     : 16:9\r\nFrame rate mode                          : Constant\r\nFrame rate                               : 23.976 (24000/1001) FPS\r\nColor space                              : YUV\r\nChroma subsampling                       : 4:2:0\r\nBit depth                                : 8 bits\r\nScan type                                : Progressive\r\nBits/(Pixel*Frame)                       : 0.050\r\nStream size                              : 1.64 GiB (86%)\r\nWriting library                          : x264 core 155 r2901 7d0ff22\r\n\r\nAudio\r\nFormat                                   : AC-3\r\nFormat/Info                              : Audio Coding 3\r\nCodec ID                                 : A_AC3\r\nDuration                                 : 1 h 35 min\r\nBit rate mode                            : Constant\r\nBit rate                                 : 384 kb/s\r\nChannel(s)                               : 6 channels\r\nChannel positions                        : Front: L C R, Side: L R, LFE\r\nSampling rate                            : 48.0 kHz\r\nFrame rate                               : 31.250 FPS (1536 SPF)\r\nBit depth                                : 16 bits\r\nStream size                              : 262 MiB (14%)\r\nLanguage                                 : English","last_updated":"2018-10-01T12:11:10.084Z","parsed":{"xt":"urn:btih:1cebf8e0de15161240e19a0f280ff3e5cd2d6dd2","dn":"Ghost Source Zero 2018 1080p WEB-DL DD 5.1 [MW]","tr":["udp://exodus.desync.com:6969","udp://open.demonii.com:1337","udp://tracker.coppersurfer.tk:6969","udp://tracker.leechers-paradise.org:6969","udp://zer0day.ch:1337"],"infoHash":"1cebf8e0de15161240e19a0f280ff3e5cd2d6dd2","infoHashBuffer":{"type":"Buffer","data":[28,235,248,224,222,21,22,18,64,225,154,15,40,15,243,229,205,45,109,210]},"name":"Ghost Source Zero 2018 1080p WEB-DL DD 5.1 [MW]","announce":["udp://exodus.desync.com:6969","udp://open.demonii.com:1337","udp://tracker.coppersurfer.tk:6969","udp://tracker.leechers-paradise.org:6969","udp://zer0day.ch:1337"],"urlList":[]}}